<svg width="512" height="512" viewBox="0 0 512 512" fill="none" xmlns="http://www.w3.org/2000/svg">
<path d="M34.9091 448.094H116.364V250.275L0 163.003V413.184C0 432.471 15.6219 448.094 34.9091 448.094Z" fill="white"/>
<path d="M395.636 448.094H477.091C496.379 448.094 512 432.471 512 413.184V163.003L395.636 250.275V448.094Z" fill="white"/>
<path d="M395.636 99.0032V250.276L512 163.003V116.458C512 73.3159 462.749 48.6759 428.219 74.5668L395.636 99.0032Z" fill="white"/>
<path fill-rule="evenodd" clip-rule="evenodd" d="M116.364 250.275V99.0026L256 203.73L395.636 99.0026V250.275L256 355.003L116.364 250.275Z" fill="white"/>
<path d="M0 116.458V163.003L116.364 250.276V99.0032L83.7819 74.5668C49.2509 48.6759 0 73.3159 0 116.458Z" fill="white"/>
</svg>
