<svg width="62" height="60" viewBox="0 0 62 60" fill="none" xmlns="http://www.w3.org/2000/svg">
<path fill-rule="evenodd" clip-rule="evenodd" d="M30.6658 0C13.7318 0 0 13.7287 0 30.6658C0 44.2152 8.78668 55.7096 20.9711 59.765C22.5032 60.0493 23.0659 59.0997 23.0659 58.2898C23.0659 57.5585 23.0374 55.1429 23.0242 52.5804C14.493 54.4355 12.6928 48.9623 12.6928 48.9623C11.2978 45.4177 9.28789 44.4752 9.28789 44.4752C6.50508 42.572 9.49762 42.6116 9.49762 42.6116C12.5765 42.8274 14.1984 45.7717 14.1984 45.7717C16.9335 50.4588 21.3723 49.1039 23.1222 48.3209C23.3975 46.3389 24.1922 44.9856 25.0692 44.2198C18.2579 43.4454 11.0972 40.8154 11.0972 29.0652C11.0972 25.7171 12.2957 22.9816 14.2573 20.8335C13.9384 20.0616 12.8888 16.9427 14.5539 12.7187C14.5539 12.7187 17.1285 11.8945 22.9887 15.862C25.4353 15.1821 28.0592 14.8403 30.6658 14.8286C33.2709 14.8403 35.8962 15.1811 38.3475 15.861C44.2005 11.8935 46.7721 12.7177 46.7721 12.7177C48.4413 16.9411 47.3916 20.0606 47.0732 20.8325C49.0395 22.9805 50.2293 25.7161 50.2293 29.0641C50.2293 40.8423 43.0554 43.4352 36.2268 44.1949C37.3273 45.1466 38.3073 47.0133 38.3073 49.8738C38.3073 53.9769 38.2718 57.2792 38.2718 58.2893C38.2718 59.1053 38.8243 60.0615 40.3782 59.7604C52.5555 55.7009 61.3321 44.2102 61.3321 30.6658C61.3316 13.7297 47.6013 0 30.6658 0Z" fill="#171515"/>
<path d="M11.6147 44.0289C11.5471 44.1812 11.3074 44.2269 11.0891 44.1228C10.8656 44.0233 10.7412 43.8156 10.8133 43.6627C10.8794 43.5053 11.1195 43.4622 11.3415 43.5673C11.5649 43.6673 11.6919 43.877 11.6142 44.0294L11.6147 44.0289ZM12.8568 45.4147C12.711 45.5503 12.4251 45.4873 12.2312 45.2725C12.0301 45.0592 11.9925 44.7733 12.1413 44.6357C12.2926 44.5006 12.5699 44.5646 12.771 44.7779C12.971 44.9942 13.0106 45.2776 12.8573 45.4152L12.8568 45.4147ZM14.0664 47.1804C13.8785 47.3114 13.5708 47.189 13.3808 46.9163C13.1929 46.6431 13.1929 46.3156 13.3859 46.185C13.5753 46.054 13.8785 46.1723 14.0715 46.4425C14.2583 46.7193 14.2583 47.0473 14.0664 47.1804ZM15.7224 48.8871C15.5548 49.0725 15.1963 49.0227 14.9342 48.7703C14.6666 48.523 14.592 48.1711 14.7601 47.9863C14.9307 47.8004 15.2907 47.8522 15.5543 48.1031C15.8219 48.3498 15.9026 48.7023 15.7234 48.8866L15.7224 48.8871ZM18.0075 49.8779C17.9329 50.118 17.5886 50.2272 17.2407 50.1247C16.8939 50.0195 16.6669 49.7387 16.738 49.496C16.8091 49.2538 17.1559 49.1405 17.5058 49.2497C17.8526 49.3543 18.0796 49.6336 18.0075 49.8779ZM20.5176 50.0612C20.5263 50.3141 20.2317 50.5233 19.8676 50.5284C19.5005 50.537 19.2034 50.3318 19.1999 50.083C19.1999 49.8276 19.4883 49.6209 19.8549 49.6138C20.219 49.6072 20.5181 49.8103 20.5181 50.0607L20.5176 50.0612ZM22.8526 49.6641C22.8962 49.9104 22.6428 50.1638 22.2808 50.2313C21.9253 50.2973 21.5952 50.1439 21.5495 49.8997C21.5058 49.6468 21.7638 49.3934 22.1193 49.3279C22.4819 49.2654 22.8069 49.4137 22.8526 49.6641Z" fill="#171515"/>
</svg>
